<svg id="Layer_1" data-name="Layer 1" xmlns="http://www.w3.org/2000/svg" viewBox="0 0 287.18 253.55"><defs><style>.cls-1{fill:#1d1d1b;}</style></defs><title>flower3</title><path class="cls-1" d="M59.16,62.19S39.24,24,76.38,8,133,30.36,133,30.36s29.79-37,60.29-26,16.58,53,16.58,53,45.06-12.24,58.79,13-19.17,56.36-19.17,56.36,44.26,16.4,33.89,41.44-54,23.3-54,23.3Z"/><path class="cls-1" d="M229.62,190.78S249.57,229,212.44,245s-56.6-22.36-56.6-22.36-29.76,37-60.27,26-16.62-53-16.62-53S33.89,208,20.14,182.77,39.27,126.4,39.27,126.4-5,110,5.34,85s54-23.34,54-23.34Z"/></svg>